<svg width="600" height="197" viewBox="0 0 600 197" fill="none" xmlns="http://www.w3.org/2000/svg">
<g clip-path="url(#clip0_3_58)">
<path fill-rule="evenodd" clip-rule="evenodd" d="M352.381 103.946C378.451 103.946 399.586 82.8933 399.586 56.9231C399.586 45.8234 395.725 35.6223 389.271 27.5788C387.799 28.1488 386.197 28.4616 384.525 28.4616C377.29 28.4616 371.429 22.6212 371.429 15.4167C371.429 14.9114 371.457 14.4127 371.513 13.9223C365.666 11.3365 359.19 9.89963 352.381 9.89963C326.311 9.89963 305.176 30.9527 305.176 56.9231C305.176 82.8933 326.311 103.946 352.381 103.946ZM409.523 56.9231C409.523 43.1757 404.632 30.5669 396.488 20.7294C397.214 19.1066 397.62 17.3087 397.62 15.4167C397.62 8.21224 391.755 2.37188 384.525 2.37188C381.43 2.37188 378.585 3.44189 376.341 5.23092C369.054 1.8734 360.937 0 352.381 0C320.822 0 295.238 25.4853 295.238 56.9231C295.238 88.3607 320.822 113.846 352.381 113.846C383.939 113.846 409.523 88.3607 409.523 56.9231ZM79.5812 88.8441L88.6357 113.846H104.362L62.9018 2.37188H46.2224L4.76192 113.846H20.4883L29.5429 88.8441H79.5812ZM74.4978 74.9894H34.6261L54.4825 20.0485L74.4978 74.9894ZM233.53 16.3858V2.37188H153.309V16.3858H186.033V113.846H200.647V16.3858H233.53ZM590.475 2.37188V113.846H575.862V26.737L539.486 87.4109H537.577L501.201 26.8962V113.846H486.429V2.37188H503.107L538.533 61.294L573.798 2.37188H590.475ZM352.381 83.0128C366.845 83.0128 378.571 71.3321 378.571 56.9231C378.571 42.5141 366.845 30.8334 352.381 30.8334C337.916 30.8334 326.191 42.5141 326.191 56.9231C326.191 71.3321 337.916 83.0128 352.381 83.0128ZM77.5052 196.859C72.2662 196.859 67.9221 195.16 64.4736 191.762C61.0251 188.332 59.3009 184.102 59.3009 179.07C59.3009 174.039 61.0251 169.825 64.4736 166.427C67.9221 162.997 72.2662 161.282 77.5052 161.282C80.6554 161.282 83.5569 162.017 86.2096 163.487C88.8955 164.957 90.9846 166.95 92.4766 169.465L87.5029 172.308C86.5745 170.609 85.2148 169.27 83.4242 168.29C81.6668 167.277 79.6938 166.77 77.5052 166.77C73.7913 166.77 70.7738 167.93 68.4528 170.25C66.1647 172.569 65.0206 175.509 65.0206 179.07C65.0206 182.631 66.1647 185.572 68.4528 187.891C70.7738 190.21 73.7913 191.37 77.5052 191.37C79.6938 191.37 81.6834 190.88 83.474 189.9C85.2646 188.887 86.6073 187.532 87.5029 185.833L92.4766 188.626C91.0177 191.142 88.9452 193.151 86.2593 194.653C83.6067 196.124 80.6886 196.859 77.5052 196.859ZM25.914 196.222L23.4768 189.312H8.65459L6.21738 196.222H0L12.6337 161.919H19.4977L32.0816 196.222H25.914ZM10.5447 184.02H21.5867L16.0657 168.535L10.5447 184.02ZM126.945 191.762C130.394 195.16 134.738 196.859 139.977 196.859C143.16 196.859 146.078 196.124 148.731 194.653C151.417 193.151 153.489 191.142 154.948 188.626L149.974 185.833C149.079 187.532 147.736 188.887 145.946 189.9C144.155 190.88 142.165 191.37 139.977 191.37C136.263 191.37 133.245 190.21 130.924 187.891C128.636 185.572 127.492 182.631 127.492 179.07C127.492 175.509 128.636 172.569 130.924 170.25C133.245 167.93 136.263 166.77 139.977 166.77C142.165 166.77 144.138 167.277 145.896 168.29C147.686 169.27 149.046 170.609 149.974 172.308L154.948 169.465C153.456 166.95 151.367 164.957 148.681 163.487C146.029 162.017 143.127 161.282 139.977 161.282C134.738 161.282 130.394 162.997 126.945 166.427C123.497 169.825 121.773 174.039 121.773 179.07C121.773 184.102 123.497 188.332 126.945 191.762ZM191.948 190.831H207.367V196.222H186.228V161.919H207.118V167.309H191.948V176.228H205.875V181.569H191.948V190.831ZM259.026 190.831H244.85V161.919H239.13V196.222H259.026V190.831ZM295.519 190.831H310.938V196.222H289.799V161.919H310.689V167.309H295.519V176.228H309.446V181.569H295.519V190.831ZM355.185 183.726L362.546 196.222H368.814L360.906 182.893C362.963 182.076 364.621 180.769 365.881 178.972C367.173 177.143 367.819 175.134 367.819 172.945C367.819 169.874 366.725 167.277 364.537 165.153C362.381 162.997 359.744 161.919 356.628 161.919H342.702V196.222H348.422V183.726H355.185ZM348.422 178.678V167.211H356.628C358.153 167.211 359.448 167.767 360.507 168.878C361.569 169.988 362.098 171.344 362.098 172.945C362.098 174.546 361.569 175.901 360.507 177.012C359.448 178.123 358.153 178.678 356.628 178.678H348.422ZM422.414 196.222L419.976 189.312H405.155L402.716 196.222H396.498L409.135 161.919H415.999L428.583 196.222H422.414ZM407.046 184.02H418.088L412.565 168.535L407.046 184.02ZM479.008 167.309V161.919H453.642V167.309H463.487V196.222H469.208V167.309H479.008ZM536.871 191.713C533.388 195.144 529.129 196.859 524.086 196.859C519.047 196.859 514.77 195.144 511.255 191.713C507.772 188.25 506.032 184.036 506.032 179.07C506.032 174.105 507.772 169.907 511.255 166.476C514.77 163.013 519.047 161.282 524.086 161.282C529.129 161.282 533.388 163.013 536.871 166.476C540.386 169.907 542.143 174.105 542.143 179.07C542.143 184.036 540.386 188.25 536.871 191.713ZM515.285 187.891C517.67 190.21 520.606 191.37 524.086 191.37C527.569 191.37 530.487 190.21 532.841 187.891C535.23 185.539 536.423 182.599 536.423 179.07C536.423 175.542 535.23 172.618 532.841 170.299C530.487 167.946 527.569 166.77 524.086 166.77C520.606 166.77 517.67 167.946 515.285 170.299C512.928 172.618 511.752 175.542 511.752 179.07C511.752 182.599 512.928 185.539 515.285 187.891ZM586.371 183.726L593.733 196.222H600L592.092 182.893C594.149 182.076 595.804 180.769 597.064 178.972C598.359 177.143 599.005 175.134 599.005 172.945C599.005 169.874 597.911 167.277 595.723 165.153C593.567 162.997 590.931 161.919 587.815 161.919H573.886V196.222H579.606V183.726H586.371ZM587.815 178.678H579.606V167.211H587.815C589.339 167.211 590.634 167.767 591.693 168.878C592.755 169.988 593.284 171.344 593.284 172.945C593.284 174.546 592.755 175.901 591.693 177.012C590.634 178.123 589.339 178.678 587.815 178.678Z" fill="black"/>
</g>
<defs>
<clipPath id="clip0_3_58">
<rect width="600" height="197" fill="white"/>
</clipPath>
</defs>
</svg>
